<svg width="326" height="48" viewBox="0 0 326 48" fill="none" xmlns="http://www.w3.org/2000/svg">
<path d="M146.505 5.19756L151.277 10.0436L156.049 5.27178L151.277 0.5L146.505 5.19756Z" fill="white"/>
<path d="M135.371 40.2562H142.025V3.15437L135.371 5.17907V40.2562Z" fill="white"/>
<path d="M29.7397 5.17922L17.9526 20.6724L6.16526 5.17922H0V40.2564H6.76917V17.1975L17.7153 30.933H18.0911L29.136 17.0977V40.2564H35.9048V5.17922H29.7397Z" fill="white"/>
<path d="M129.641 40.2562H122.987V5.17907L129.641 3.15437V40.2562Z" fill="white"/>
<path fill-rule="evenodd" clip-rule="evenodd" d="M83.7766 14.206L83.2935 14.0784C82.0372 13.7476 80.5805 13.5651 79.1913 13.5651C76.9257 13.5651 73.6882 14.0388 71.1299 16.2968C68.4305 18.6795 67.0618 22.5282 67.0618 27.7361C67.0618 32.4603 68.3486 35.9635 70.8865 38.1477C72.9716 39.943 75.8818 40.8529 79.536 40.8529C84.0043 40.8529 88.1216 39.5238 90.1778 38.7308L90.3493 38.6654V3.37517L83.7766 5.18991V14.206ZM83.7766 34.5177L83.5124 34.6062C83.4793 34.6172 81.9744 35.1156 80.4538 35.1156H80.232C79.5332 35.1156 77.8967 35.1156 76.512 34.0531C74.921 32.8305 74.1142 30.578 74.1142 27.3592C74.1142 22.3791 76.467 19.4056 80.4075 19.4056C81.414 19.4056 82.4626 19.6033 83.5244 19.9938L83.7766 20.0869V34.5177Z" fill="white"/>
<path d="M154.303 40.2565H147.649V15.2528L154.303 13.2281V40.2565Z" fill="white"/>
<path fill-rule="evenodd" clip-rule="evenodd" d="M97.0102 15.3894C97.0102 15.3894 100.45 13.4861 105.335 13.4861C110.473 13.4861 117.303 14.5521 117.303 23.7661V40.1677H110.921V38.7225C110.921 38.7225 108.207 40.8234 103.365 40.8234C98.5233 40.8234 94.1728 37.6409 94.1728 32.4645C94.1728 27.288 98.3517 23.9975 105.94 23.9975C108.368 23.9975 110.42 24.5198 110.42 24.5198C110.431 23.3746 110.446 21.4739 109.538 20.5055C108.656 19.563 107.181 19.1051 105.031 19.1051C101.189 19.1051 98.6922 20.1581 97.4443 20.6844C97.2993 20.7455 97.1712 20.7996 97.0598 20.844H97.0102V15.3894ZM104.871 35.923C108.835 35.923 110.492 33.7799 110.492 33.7799V28.8333C110.492 28.8333 109.006 28.4772 106.489 28.4772C103.789 28.4772 100.906 29.5029 100.906 32.3815C100.906 34.5994 102.464 35.923 104.871 35.923Z" fill="white"/>
<path fill-rule="evenodd" clip-rule="evenodd" d="M169.033 13.4861C164.148 13.4861 160.709 15.3894 160.709 15.3894V20.844H160.757C160.869 20.7995 160.997 20.7453 161.143 20.684C162.391 20.1576 164.888 19.1051 168.73 19.1051C170.879 19.1051 172.354 19.563 173.237 20.5055C174.144 21.4739 174.128 23.3746 174.117 24.5198C174.117 24.5198 172.066 23.9975 169.638 23.9975C162.05 23.9975 157.871 27.288 157.871 32.4645C157.871 37.6409 162.221 40.8234 167.063 40.8234C171.905 40.8234 174.619 38.7225 174.619 38.7225V40.1677H181V23.7661C181 14.5521 174.171 13.4861 169.033 13.4861ZM174.189 33.7799C174.189 33.7799 172.534 35.923 168.569 35.923C166.162 35.923 164.603 34.5994 164.603 32.3815C164.603 29.5029 167.488 28.4772 170.187 28.4772C172.704 28.4772 174.189 28.8333 174.189 28.8333V33.7799Z" fill="white"/>
<path fill-rule="evenodd" clip-rule="evenodd" d="M60.318 16.402C62.6003 18.5483 63.7576 22.0114 63.7576 26.7814C63.7576 27.9263 63.6693 29.5669 63.6693 29.5669H46.7362C46.8322 30.1414 47.0838 31.1367 47.7361 32.1361C49.3769 34.6505 52.214 35.4353 54.3052 35.4353C58.1965 35.4353 61.0788 33.9265 62.0474 33.3439V38.8952C60.6331 39.5312 57.0895 40.9251 53.2192 40.9251C49.2701 40.9251 40.0852 39.5988 40.0852 27.3086C40.0852 22.5058 41.5075 18.8396 44.3125 16.4123C46.4437 14.5688 49.4263 13.5112 52.495 13.5112C55.8279 13.5112 58.4601 14.6545 60.318 16.402ZM47.425 21.9656C46.8668 23.0133 46.7824 24.2042 46.7824 24.8252H57.8261C57.8261 24.2439 57.8037 23.0621 57.3078 21.989C56.6838 20.6403 55.2127 19.0332 52.4826 19.0332C49.7652 19.0332 48.1376 20.6283 47.425 21.9656Z" fill="white"/>
<g opacity="0.6">
<path d="M215.5 40L212.656 32.7344H203.5L200.688 40H198L207.031 17.0625H209.266L218.25 40H215.5ZM211.828 30.3438L209.172 23.2656C208.828 22.3698 208.474 21.2708 208.109 19.9688C207.88 20.9688 207.552 22.0677 207.125 23.2656L204.438 30.3438H211.828Z" fill="white"/>
<path d="M223.594 40H221V15.6875H223.594V40Z" fill="white"/>
<path d="M235.938 40.3125C233.458 40.3125 231.536 39.5521 230.172 38.0312C228.818 36.5 228.141 34.3385 228.141 31.5469C228.141 28.6823 228.828 26.4688 230.203 24.9062C231.589 23.3438 233.557 22.5625 236.109 22.5625C236.932 22.5625 237.755 22.651 238.578 22.8281C239.401 23.0052 240.047 23.2135 240.516 23.4531L239.719 25.6562C239.146 25.4271 238.521 25.2396 237.844 25.0938C237.167 24.9375 236.568 24.8594 236.047 24.8594C232.568 24.8594 230.828 27.0781 230.828 31.5156C230.828 33.6198 231.25 35.2344 232.094 36.3594C232.948 37.4844 234.208 38.0469 235.875 38.0469C237.302 38.0469 238.766 37.7396 240.266 37.125V39.4219C239.12 40.0156 237.677 40.3125 235.938 40.3125Z" fill="white"/>
<path d="M256.062 40V28.9219C256.062 27.526 255.745 26.4844 255.109 25.7969C254.474 25.1094 253.479 24.7656 252.125 24.7656C250.323 24.7656 249.005 25.2552 248.172 26.2344C247.349 27.2135 246.938 28.8177 246.938 31.0469V40H244.344V15.6875H246.938V23.0469C246.938 23.9323 246.896 24.6667 246.812 25.25H246.969C247.479 24.4271 248.203 23.7812 249.141 23.3125C250.089 22.8333 251.167 22.5938 252.375 22.5938C254.469 22.5938 256.036 23.0938 257.078 24.0938C258.13 25.0833 258.656 26.6615 258.656 28.8281V40H256.062Z" fill="white"/>
<path d="M271.234 40.3125C268.703 40.3125 266.703 39.5417 265.234 38C263.776 36.4583 263.047 34.3177 263.047 31.5781C263.047 28.8177 263.724 26.625 265.078 25C266.443 23.375 268.271 22.5625 270.562 22.5625C272.708 22.5625 274.406 23.2708 275.656 24.6875C276.906 26.0938 277.531 27.9531 277.531 30.2656V31.9062H265.734C265.786 33.9167 266.292 35.4427 267.25 36.4844C268.219 37.526 269.578 38.0469 271.328 38.0469C273.172 38.0469 274.995 37.6615 276.797 36.8906V39.2031C275.88 39.599 275.01 39.8802 274.188 40.0469C273.375 40.224 272.391 40.3125 271.234 40.3125ZM270.531 24.7344C269.156 24.7344 268.057 25.1823 267.234 26.0781C266.422 26.974 265.943 28.2135 265.797 29.7969H274.75C274.75 28.1615 274.385 26.9115 273.656 26.0469C272.927 25.1719 271.885 24.7344 270.531 24.7344Z" fill="white"/>
<path d="M303.797 40V28.8594C303.797 27.4948 303.505 26.474 302.922 25.7969C302.339 25.1094 301.432 24.7656 300.203 24.7656C298.589 24.7656 297.396 25.2292 296.625 26.1562C295.854 27.0833 295.469 28.5104 295.469 30.4375V40H292.875V28.8594C292.875 27.4948 292.583 26.474 292 25.7969C291.417 25.1094 290.505 24.7656 289.266 24.7656C287.641 24.7656 286.448 25.2552 285.688 26.2344C284.938 27.2031 284.562 28.7969 284.562 31.0156V40H281.969V22.875H284.078L284.5 25.2188H284.625C285.115 24.3854 285.802 23.7344 286.688 23.2656C287.583 22.7969 288.583 22.5625 289.688 22.5625C292.365 22.5625 294.115 23.5312 294.938 25.4688H295.062C295.573 24.5729 296.312 23.8646 297.281 23.3438C298.25 22.8229 299.354 22.5625 300.594 22.5625C302.531 22.5625 303.979 23.0625 304.938 24.0625C305.906 25.0521 306.391 26.6406 306.391 28.8281V40H303.797Z" fill="white"/>
<path d="M309.031 22.875H311.812L315.562 32.6406C316.385 34.8698 316.896 36.4792 317.094 37.4688H317.219C317.354 36.9375 317.635 36.0312 318.062 34.75C318.5 33.4583 319.917 29.5 322.312 22.875H325.094L317.734 42.375C317.005 44.3021 316.151 45.6667 315.172 46.4688C314.203 47.2812 313.01 47.6875 311.594 47.6875C310.802 47.6875 310.021 47.599 309.25 47.4219V45.3438C309.823 45.4688 310.464 45.5312 311.172 45.5312C312.953 45.5312 314.224 44.5312 314.984 42.5312L315.938 40.0938L309.031 22.875Z" fill="white"/>
</g>
</svg>
