<svg width="288" height="26" viewBox="0 0 288 26" fill="none" xmlns="http://www.w3.org/2000/svg">
<path fill-rule="evenodd" clip-rule="evenodd" d="M82.8311 16.2618H95.5087L88.8151 5.44267L76.5196 24.9942L70.9147 25L85.882 1.52257C86.5169 0.569883 87.6114 0 88.8065 0C89.9872 0 91.0645 0.552613 91.6965 1.47939L106.718 25L101.114 24.9942L98.4792 20.628H85.6378L82.8311 16.2618ZM141.002 20.6338V0.2389H136.245V22.6255C136.245 23.2443 136.498 23.8343 136.937 24.2805C137.406 24.7352 138.02 24.9943 138.678 24.9943H160.348L163.146 20.6338H141.002ZM62.394 16.9814C67.0106 16.9814 70.7424 13.2339 70.7424 8.61157C70.7424 3.98919 67.0106 0.2389 62.394 0.2389H41.595V24.9943H46.3495V4.60512H62.0665C64.2815 4.60512 66.0655 6.39536 66.0655 8.61157C66.0655 10.8191 64.2815 12.6151 62.0665 12.6151L48.6793 12.6094L62.8537 24.9943H69.7599L60.2193 16.9756L62.394 16.9814ZM12.3559 24.9943C5.533 24.9943 0 19.4566 0 12.6151C0 5.77943 5.533 0.2389 12.3559 0.2389H26.7198C33.5427 0.2389 39.0728 5.77943 39.0728 12.6151C39.0728 19.4595 33.5427 25 26.7198 25L12.3559 24.9943ZM26.3953 20.6338C30.8137 20.6338 34.3989 17.0447 34.3989 12.6151C34.3989 8.19136 30.8137 4.60513 26.3953 4.60513H12.6778C8.2594 4.60513 4.67703 8.19136 4.67703 12.6151C4.67703 17.0447 8.2594 20.6338 12.6778 20.6338H26.3953ZM116.635 24.9943C109.81 24.9943 104.274 19.4566 104.274 12.6151C104.274 5.77943 109.81 0.2389 116.635 0.2389H133.697L130.896 4.60512H116.957C112.533 4.60512 108.945 8.19135 108.945 12.6151C108.945 17.0447 112.533 20.6338 116.957 20.6338H134.079L131.298 24.9943H116.635ZM174.758 20.6338C171.098 20.6338 168.004 18.1701 167.056 14.8083H187.364L190.17 10.445H167.053C168.001 7.07173 171.092 4.60512 174.758 4.60512H188.696L191.495 0.2389H174.427C167.61 0.2389 162.077 5.77943 162.077 12.6151C162.077 19.4566 167.61 24.9943 174.427 24.9943H189.084L191.882 20.6338H174.758Z" fill="black"/>
<g opacity="0.6">
<path d="M215.969 4.20312C213.458 4.20312 211.474 5.04167 210.016 6.71875C208.568 8.38542 207.844 10.6719 207.844 13.5781C207.844 16.5677 208.542 18.8802 209.938 20.5156C211.344 22.1406 213.344 22.9531 215.938 22.9531C217.531 22.9531 219.349 22.6667 221.391 22.0938V24.4219C219.807 25.0156 217.854 25.3125 215.531 25.3125C212.167 25.3125 209.568 24.2917 207.734 22.25C205.911 20.2083 205 17.3073 205 13.5469C205 11.1927 205.438 9.13021 206.312 7.35938C207.198 5.58854 208.469 4.22396 210.125 3.26562C211.792 2.30729 213.75 1.82812 216 1.82812C218.396 1.82812 220.49 2.26562 222.281 3.14062L221.156 5.42188C219.427 4.60938 217.698 4.20312 215.969 4.20312Z" fill="black"/>
<path d="M228.578 25H225.984V0.6875H228.578V25Z" fill="black"/>
<path d="M248.859 16.4219C248.859 19.2135 248.156 21.3958 246.75 22.9688C245.344 24.5312 243.401 25.3125 240.922 25.3125C239.391 25.3125 238.031 24.9531 236.844 24.2344C235.656 23.5156 234.74 22.4844 234.094 21.1406C233.448 19.7969 233.125 18.224 233.125 16.4219C233.125 13.6302 233.823 11.4583 235.219 9.90625C236.615 8.34375 238.552 7.5625 241.031 7.5625C243.427 7.5625 245.328 8.35938 246.734 9.95312C248.151 11.5469 248.859 13.7031 248.859 16.4219ZM235.812 16.4219C235.812 18.6094 236.25 20.276 237.125 21.4219C238 22.5677 239.286 23.1406 240.984 23.1406C242.682 23.1406 243.969 22.5729 244.844 21.4375C245.729 20.2917 246.172 18.6198 246.172 16.4219C246.172 14.2448 245.729 12.5938 244.844 11.4688C243.969 10.3333 242.672 9.76562 240.953 9.76562C239.255 9.76562 237.974 10.3229 237.109 11.4375C236.245 12.5521 235.812 14.2135 235.812 16.4219Z" fill="black"/>
<path d="M255.859 7.875V18.9844C255.859 20.3802 256.177 21.4219 256.812 22.1094C257.448 22.7969 258.443 23.1406 259.797 23.1406C261.589 23.1406 262.896 22.651 263.719 21.6719C264.552 20.6927 264.969 19.0938 264.969 16.875V7.875H267.562V25H265.422L265.047 22.7031H264.906C264.375 23.5469 263.635 24.1927 262.688 24.6406C261.75 25.0885 260.677 25.3125 259.469 25.3125C257.385 25.3125 255.823 24.8177 254.781 23.8281C253.75 22.8385 253.234 21.2552 253.234 19.0781V7.875H255.859Z" fill="black"/>
<path d="M284.734 22.7031H284.594C283.396 24.4427 281.604 25.3125 279.219 25.3125C276.979 25.3125 275.234 24.5469 273.984 23.0156C272.745 21.4844 272.125 19.3073 272.125 16.4844C272.125 13.6615 272.75 11.4688 274 9.90625C275.25 8.34375 276.99 7.5625 279.219 7.5625C281.542 7.5625 283.323 8.40625 284.562 10.0938H284.766L284.656 8.85938L284.594 7.65625V0.6875H287.188V25H285.078L284.734 22.7031ZM279.547 23.1406C281.318 23.1406 282.599 22.6615 283.391 21.7031C284.193 20.7344 284.594 19.1771 284.594 17.0312V16.4844C284.594 14.0573 284.188 12.3281 283.375 11.2969C282.573 10.2552 281.286 9.73438 279.516 9.73438C277.995 9.73438 276.828 10.3281 276.016 11.5156C275.214 12.6927 274.812 14.3594 274.812 16.5156C274.812 18.7031 275.214 20.3542 276.016 21.4688C276.818 22.5833 277.995 23.1406 279.547 23.1406Z" fill="black"/>
</g>
</svg>
