<svg width="192" height="25" viewBox="0 0 192 25" fill="none" xmlns="http://www.w3.org/2000/svg">
<path fill-rule="evenodd" clip-rule="evenodd" d="M82.8311 16.2618H95.5087L88.8151 5.44267L76.5196 24.9942L70.9147 25L85.882 1.52257C86.5169 0.569883 87.6114 0 88.8065 0C89.9872 0 91.0645 0.552613 91.6965 1.47939L106.718 25L101.114 24.9942L98.4792 20.628H85.6378L82.8311 16.2618ZM141.002 20.6338V0.2389H136.245V22.6255C136.245 23.2443 136.498 23.8343 136.937 24.2805C137.406 24.7352 138.02 24.9943 138.678 24.9943H160.348L163.146 20.6338H141.002ZM62.394 16.9814C67.0106 16.9814 70.7424 13.2339 70.7424 8.61157C70.7424 3.98919 67.0106 0.2389 62.394 0.2389H41.595V24.9943H46.3495V4.60512H62.0665C64.2815 4.60512 66.0655 6.39536 66.0655 8.61157C66.0655 10.8191 64.2815 12.6151 62.0665 12.6151L48.6793 12.6094L62.8537 24.9943H69.7599L60.2193 16.9756L62.394 16.9814ZM12.3559 24.9943C5.533 24.9943 0 19.4566 0 12.6151C0 5.77943 5.533 0.2389 12.3559 0.2389H26.7198C33.5427 0.2389 39.0728 5.77943 39.0728 12.6151C39.0728 19.4595 33.5427 25 26.7198 25L12.3559 24.9943ZM26.3953 20.6338C30.8137 20.6338 34.3989 17.0447 34.3989 12.6151C34.3989 8.19136 30.8137 4.60513 26.3953 4.60513H12.6778C8.2594 4.60513 4.67703 8.19136 4.67703 12.6151C4.67703 17.0447 8.2594 20.6338 12.6778 20.6338H26.3953ZM116.635 24.9943C109.81 24.9943 104.274 19.4566 104.274 12.6151C104.274 5.77943 109.81 0.2389 116.635 0.2389H133.697L130.896 4.60512H116.957C112.533 4.60512 108.945 8.19135 108.945 12.6151C108.945 17.0447 112.533 20.6338 116.957 20.6338H134.079L131.298 24.9943H116.635ZM174.758 20.6338C171.098 20.6338 168.004 18.1701 167.056 14.8083H187.364L190.17 10.445H167.053C168.001 7.07173 171.092 4.60512 174.758 4.60512H188.696L191.495 0.2389H174.427C167.61 0.2389 162.077 5.77943 162.077 12.6151C162.077 19.4566 167.61 24.9943 174.427 24.9943H189.084L191.882 20.6338H174.758Z" fill="#C74634"/>
</svg>
