<svg width="200" height="41" viewBox="0 0 200 41" fill="none" xmlns="http://www.w3.org/2000/svg">
<path d="M30.8581 0V31.1838H0V0H0.0407096L15.2255 21.5355L30.7767 0H30.8581Z" fill="black"/>
<path d="M36.2824 22.0648C36.2824 20.2464 36.703 18.618 37.5444 17.1796C38.4128 15.7412 39.6206 14.6148 41.1675 13.8006C42.7417 12.9593 44.5193 12.5386 46.5005 12.5386C48.4818 12.5386 50.2187 12.9593 51.7114 13.8006C53.2312 14.6148 54.3983 15.7412 55.2125 17.1796C56.0266 18.618 56.4338 20.2464 56.4338 22.0648C56.4338 23.8831 56.0266 25.5251 55.2125 26.9907C54.3983 28.4562 53.2312 29.6097 51.7114 30.451C50.2187 31.2652 48.4546 31.6723 46.4191 31.6723C44.4379 31.6723 42.6738 31.2923 41.1268 30.5324C39.607 29.7454 38.4128 28.6326 37.5444 27.1942C36.703 25.7558 36.2824 24.046 36.2824 22.0648ZM42.0225 22.1055C42.0225 23.5167 42.4296 24.6973 43.2437 25.6472C44.0579 26.57 45.0893 27.0314 46.3377 27.0314C47.6404 27.0314 48.6853 26.57 49.4724 25.6472C50.2866 24.7245 50.6937 23.5439 50.6937 22.1055C50.6937 20.667 50.2866 19.4865 49.4724 18.5637C48.6853 17.6409 47.6404 17.1796 46.3377 17.1796C45.0893 17.1796 44.0579 17.6545 43.2437 18.6044C42.4296 19.5272 42.0225 20.6942 42.0225 22.1055Z" fill="black"/>
<path d="M78.7281 13.3935L68.6321 31.5502H68.4692L57.8033 13.3935H64.5611L68.7135 21.8612L72.3774 13.3935H78.7281Z" fill="black"/>
<path d="M87.773 13.3935V31.1838H82.0737V13.3935H87.773ZM81.9515 7.08352C81.9515 6.26932 82.2636 5.59082 82.8879 5.04803C83.5392 4.47809 84.272 4.19312 85.0862 4.19312C85.8732 4.19312 86.5789 4.47809 87.2031 5.04803C87.8273 5.59082 88.1394 6.26932 88.1394 7.08352C88.1394 7.89772 87.8273 8.57621 87.2031 9.11901C86.5789 9.66181 85.8732 9.93321 85.0862 9.93321C84.272 9.93321 83.5392 9.66181 82.8879 9.11901C82.2636 8.57621 81.9515 7.89772 81.9515 7.08352Z" fill="black"/>
<path d="M102.517 26.8278C103.657 26.8278 104.838 26.4343 106.059 25.6472L108.583 29.8811C107.606 30.4239 106.575 30.8581 105.489 31.1838C104.404 31.5094 103.372 31.6723 102.395 31.6723C100.278 31.6723 98.4463 31.2788 96.8994 30.4917C95.3795 29.6775 94.2261 28.5512 93.439 27.1128C92.652 25.6472 92.2584 23.9781 92.2584 22.1055C92.2584 20.3685 92.7063 18.7673 93.6019 17.3017C94.5246 15.8361 95.7731 14.6827 97.3472 13.8414C98.9213 12.9729 100.645 12.5386 102.517 12.5386C105.068 12.5386 107.158 13.285 108.787 14.7777C110.442 16.2704 111.514 18.4009 112.003 21.1691L98.9756 25.3215C99.844 26.3257 101.025 26.8278 102.517 26.8278ZM102.07 16.976C100.794 16.976 99.7762 17.4103 99.0163 18.2787C98.2564 19.1472 97.8764 20.3142 97.8764 21.7798V22.1462L105.693 19.5C105.123 17.8174 103.915 16.976 102.07 16.976Z" fill="black"/>
<path d="M136.051 13.3935V31.1838C136.051 32.8664 135.563 34.3863 134.586 35.7433C133.636 37.1274 132.333 38.1994 130.678 38.9594C129.049 39.7464 127.272 40.1399 125.345 40.1399C123.879 40.1399 122.59 39.9635 121.477 39.6107C120.392 39.2579 119.51 38.8644 118.831 38.4301C118.18 37.9959 117.393 37.3988 116.47 36.6389L119.808 32.7307C120.622 33.4907 121.423 34.0877 122.21 34.522C123.024 34.9562 124.042 35.1733 125.263 35.1733C126.702 35.1733 127.909 34.8069 128.887 34.0742C129.864 33.3685 130.352 32.3779 130.352 31.1023V28.5783C129.809 29.5011 128.968 30.2474 127.828 30.8174C126.715 31.3873 125.345 31.6723 123.716 31.6723C122.115 31.6723 120.622 31.2652 119.238 30.451C117.881 29.6097 116.796 28.4698 115.981 27.0314C115.167 25.5658 114.76 23.951 114.76 22.1869C114.76 20.3956 115.181 18.7537 116.022 17.261C116.891 15.7683 118.017 14.6013 119.401 13.7599C120.812 12.9186 122.292 12.4979 123.838 12.4979C125.304 12.4979 126.607 12.7151 127.747 13.1493C128.887 13.5564 129.755 14.0992 130.352 14.7777L130.8 13.3935H136.051ZM125.426 27.0314C127.706 27.0314 129.348 26.1357 130.352 24.3445V19.9886C129.972 19.1201 129.334 18.428 128.439 17.9123C127.57 17.3967 126.566 17.1389 125.426 17.1389C124.042 17.1389 122.875 17.6002 121.925 18.523C120.975 19.4458 120.5 20.6128 120.5 22.024C120.5 23.4353 120.975 24.6295 121.925 25.6065C122.875 26.5564 124.042 27.0314 125.426 27.0314Z" fill="black"/>
<path d="M140.522 22.0648C140.522 20.2464 140.943 18.618 141.784 17.1796C142.652 15.7412 143.86 14.6148 145.407 13.8006C146.981 12.9593 148.759 12.5386 150.74 12.5386C152.721 12.5386 154.458 12.9593 155.951 13.8006C157.471 14.6148 158.638 15.7412 159.452 17.1796C160.266 18.618 160.673 20.2464 160.673 22.0648C160.673 23.8831 160.266 25.5251 159.452 26.9907C158.638 28.4562 157.471 29.6097 155.951 30.451C154.458 31.2652 152.694 31.6723 150.659 31.6723C148.677 31.6723 146.913 31.2923 145.366 30.5324C143.847 29.7454 142.652 28.6326 141.784 27.1942C140.943 25.7558 140.522 24.046 140.522 22.0648ZM146.262 22.1055C146.262 23.5167 146.669 24.6973 147.483 25.6472C148.297 26.57 149.329 27.0314 150.577 27.0314C151.88 27.0314 152.925 26.57 153.712 25.6472C154.526 24.7245 154.933 23.5439 154.933 22.1055C154.933 20.667 154.526 19.4865 153.712 18.5637C152.925 17.6409 151.88 17.1796 150.577 17.1796C149.329 17.1796 148.297 17.6545 147.483 18.6044C146.669 19.5272 146.262 20.6942 146.262 22.1055Z" fill="black"/>
<path d="M174.038 26.8278C175.178 26.8278 176.358 26.4343 177.58 25.6472L180.104 29.8811C179.127 30.4239 178.095 30.8581 177.01 31.1838C175.924 31.5094 174.893 31.6723 173.916 31.6723C171.799 31.6723 169.967 31.2788 168.42 30.4917C166.9 29.6775 165.747 28.5512 164.96 27.1128C164.173 25.6472 163.779 23.9781 163.779 22.1055C163.779 20.3685 164.227 18.7673 165.122 17.3017C166.045 15.8361 167.294 14.6827 168.868 13.8414C170.442 12.9729 172.165 12.5386 174.038 12.5386C176.589 12.5386 178.679 13.285 180.307 14.7777C181.963 16.2704 183.035 18.4009 183.523 21.1691L170.496 25.3215C171.365 26.3257 172.545 26.8278 174.038 26.8278ZM173.59 16.976C172.315 16.976 171.297 17.4103 170.537 18.2787C169.777 19.1472 169.397 20.3142 169.397 21.7798V22.1462L177.213 19.5C176.643 17.8174 175.436 16.976 173.59 16.976Z" fill="black"/>
<path d="M193.242 17.4645C193.731 16.5146 194.396 15.6597 195.237 14.8998C196.105 14.1399 196.987 13.5564 197.883 13.1493C198.779 12.7151 199.484 12.4979 200 12.4979L199.715 18.1973C199.552 18.1702 199.322 18.1566 199.023 18.1566C197.883 18.1566 196.879 18.4551 196.01 19.0522C195.142 19.6493 194.477 20.4228 194.016 21.3727C193.554 22.2954 193.324 23.2453 193.324 24.2224V31.1838H187.665V13.3935H192.794L193.242 17.4645Z" fill="black"/>
</svg>
