<svg width="322" height="45" viewBox="0 0 322 45" fill="none" xmlns="http://www.w3.org/2000/svg">
<path d="M58.7236 35.0914V9.71483H68.1952C70.292 9.71483 72.1268 10.0484 73.6994 10.7156C75.272 11.3828 76.5826 12.2882 77.631 13.432C78.7032 14.5757 79.5015 15.922 80.0257 17.4708C80.5737 18.9958 80.8478 20.628 80.8478 22.3674C80.8478 24.2975 80.5499 26.0488 79.9542 27.6214C79.3585 29.1702 78.5007 30.5046 77.3808 31.6245C76.2847 32.7206 74.9504 33.5784 73.3777 34.1979C71.8289 34.7936 70.1014 35.0914 68.1952 35.0914H58.7236ZM74.8789 22.3674C74.8789 21.2475 74.724 20.2348 74.4142 19.3294C74.1283 18.4001 73.6994 17.6018 73.1275 16.9347C72.5557 16.2675 71.8528 15.7552 71.0188 15.3978C70.1848 15.0403 69.2436 14.8616 68.1952 14.8616H64.5853V29.9446H68.1952C69.2674 29.9446 70.2206 29.754 71.0545 29.3728C71.8885 28.9915 72.5795 28.4673 73.1275 27.8001C73.6994 27.1091 74.1283 26.3109 74.4142 25.4054C74.724 24.4762 74.8789 23.4635 74.8789 22.3674Z" fill="white"/>
<path d="M92.8148 35.4489C91.2422 35.4489 89.8244 35.1987 88.5615 34.6983C87.3225 34.1741 86.2622 33.4712 85.3805 32.5895C84.5227 31.7079 83.8675 30.6952 83.4147 29.5515C82.962 28.3839 82.7356 27.1687 82.7356 25.9058C82.7356 24.5476 82.962 23.2729 83.4147 22.0815C83.8675 20.8662 84.5227 19.8059 85.3805 18.9005C86.2383 17.995 87.2868 17.2802 88.5258 16.756C89.7887 16.2317 91.2183 15.9696 92.8148 15.9696C94.4113 15.9696 95.829 16.2317 97.0681 16.756C98.3071 17.2802 99.3555 17.995 100.213 18.9005C101.071 19.7821 101.714 20.8067 102.143 21.9742C102.596 23.1418 102.822 24.3689 102.822 25.6556C102.822 25.9892 102.811 26.3228 102.787 26.6564C102.763 26.9662 102.727 27.2402 102.68 27.4785H88.8117C88.907 28.7413 89.3598 29.7064 90.1699 30.3735C91.0039 31.0169 91.9451 31.3386 92.9935 31.3386C93.8275 31.3386 94.6257 31.136 95.3882 30.731C96.1745 30.3259 96.6987 29.7778 96.9608 29.0868L101.822 30.445C101.083 31.9224 99.9393 33.1257 98.3905 34.0549C96.8417 34.9842 94.9831 35.4489 92.8148 35.4489ZM96.7821 23.94C96.663 22.7486 96.2341 21.8074 95.4954 21.1164C94.7568 20.4254 93.8394 20.0799 92.7433 20.0799C91.6234 20.0799 90.6941 20.4373 89.9555 21.1522C89.2406 21.8432 88.8236 22.7725 88.7045 23.94H96.7821Z" fill="white"/>
<path d="M109.787 35.0914L103.139 16.327H109.036L113.146 30.5165L117.292 16.327H122.618L116.006 35.0914H109.787Z" fill="white"/>
<path d="M136.652 35.4489C135.223 35.4489 133.984 35.151 132.935 34.5553C131.887 33.9596 131.077 33.1257 130.505 32.0534V42.7044H124.786V16.327H129.754V19.3651C130.445 18.2928 131.303 17.4589 132.328 16.8632C133.376 16.2675 134.615 15.9696 136.045 15.9696C137.308 15.9696 138.463 16.2198 139.512 16.7202C140.584 17.2206 141.501 17.9116 142.264 18.7932C143.05 19.651 143.658 20.6756 144.087 21.867C144.539 23.0346 144.766 24.2975 144.766 25.6556C144.766 27.0615 144.563 28.3601 144.158 29.5515C143.753 30.7429 143.193 31.7794 142.478 32.661C141.763 33.5188 140.906 34.1979 139.905 34.6983C138.904 35.1987 137.82 35.4489 136.652 35.4489ZM134.722 30.6237C135.342 30.6237 135.902 30.4927 136.402 30.2306C136.926 29.9446 137.379 29.5753 137.76 29.1226C138.142 28.6699 138.427 28.1456 138.618 27.5499C138.833 26.9304 138.94 26.2871 138.94 25.6199C138.94 24.9289 138.821 24.2975 138.582 23.7256C138.368 23.1299 138.058 22.6176 137.653 22.1887C137.272 21.7598 136.795 21.4262 136.223 21.1879C135.675 20.9496 135.08 20.8305 134.436 20.8305C133.65 20.8305 132.888 21.0688 132.149 21.5453C131.434 21.9981 130.886 22.6176 130.505 23.4039V27.264C130.886 28.2171 131.458 29.0154 132.22 29.6587C133.007 30.3021 133.841 30.6237 134.722 30.6237Z" fill="white"/>
<path d="M147.577 9H153.295V28.4077C153.295 29.8374 153.903 30.5523 155.118 30.5523C155.404 30.5523 155.714 30.5165 156.047 30.445C156.405 30.3497 156.727 30.2187 157.013 30.0519L157.763 34.3409C157.048 34.6745 156.226 34.9366 155.297 35.1272C154.368 35.3178 153.498 35.4131 152.688 35.4131C151.044 35.4131 149.781 34.9842 148.899 34.1264C148.018 33.2686 147.577 32.0296 147.577 30.4093V9Z" fill="white"/>
<path d="M164.946 35.4489C164.016 35.4489 163.147 35.3059 162.337 35.02C161.55 34.7102 160.871 34.2932 160.299 33.769C159.727 33.221 159.275 32.5895 158.941 31.8747C158.608 31.136 158.441 30.3378 158.441 29.48C158.441 28.5507 158.631 27.7048 159.013 26.9423C159.418 26.1798 159.978 25.5246 160.693 24.9765C161.407 24.4285 162.253 23.9996 163.23 23.6898C164.207 23.3801 165.291 23.2252 166.483 23.2252C167.269 23.2252 168.031 23.2967 168.77 23.4397C169.509 23.5588 170.152 23.7494 170.7 24.0115V23.1537C170.7 20.9854 169.449 19.9012 166.947 19.9012C165.923 19.9012 164.946 20.0799 164.016 20.4373C163.087 20.7709 162.11 21.2832 161.086 21.9742L159.406 18.4001C160.645 17.5899 161.932 16.9823 163.266 16.5772C164.6 16.1722 166.018 15.9696 167.519 15.9696C170.355 15.9696 172.547 16.6368 174.096 17.9712C175.644 19.3055 176.419 21.2594 176.419 23.8328V28.6579C176.419 29.2298 176.502 29.6349 176.669 29.8732C176.86 30.0876 177.181 30.2187 177.634 30.2663V35.0914C177.134 35.2106 176.681 35.2821 176.276 35.3059C175.871 35.3536 175.501 35.3774 175.168 35.3774C174.096 35.3774 173.285 35.1748 172.737 34.7698C172.189 34.3409 171.844 33.7452 171.701 32.9827L171.594 32.1249C170.76 33.1971 169.759 34.0192 168.591 34.5911C167.448 35.1629 166.232 35.4489 164.946 35.4489ZM166.626 31.3386C167.245 31.3386 167.841 31.2313 168.413 31.0169C169.008 30.8024 169.497 30.5165 169.878 30.1591C170.426 29.7302 170.7 29.2775 170.7 28.8009V27.0138C170.2 26.8232 169.652 26.6802 169.056 26.5849C168.484 26.4658 167.948 26.4062 167.448 26.4062C166.399 26.4062 165.53 26.6445 164.839 27.121C164.171 27.5976 163.838 28.2171 163.838 28.9796C163.838 29.6706 164.1 30.2425 164.624 30.6952C165.148 31.1241 165.815 31.3386 166.626 31.3386Z" fill="white"/>
<path d="M180.252 37.915C180.728 38.0818 181.169 38.201 181.574 38.2725C182.003 38.3439 182.384 38.3797 182.718 38.3797C183.409 38.3797 183.945 38.1414 184.326 37.6649C184.708 37.1883 185.053 36.3305 185.363 35.0914L178.215 16.327H184.112L188.472 30.1948L192.225 16.327H197.587L190.438 38.1295C189.938 39.6783 189.044 40.9293 187.758 41.8824C186.471 42.8593 184.946 43.3478 183.183 43.3478C182.706 43.3478 182.218 43.3001 181.717 43.2048C181.241 43.1333 180.752 43.0023 180.252 42.8117V37.915Z" fill="white"/>
<path d="M206.493 35.1629C205.254 35.1629 204.122 34.9127 203.097 34.4124C202.073 33.912 201.191 33.2329 200.452 32.3751C199.738 31.5173 199.178 30.5165 198.773 29.3728C198.367 28.229 198.165 27.0019 198.165 25.6914C198.165 24.3094 198.379 23.0346 198.808 21.867C199.237 20.6756 199.833 19.651 200.595 18.7932C201.358 17.9116 202.275 17.2206 203.347 16.7202C204.42 16.2198 205.599 15.9696 206.886 15.9696C208.316 15.9696 209.555 16.2794 210.603 16.8989C211.675 17.4946 212.533 18.3286 213.176 19.4008V16.327H218.145V33.8047C218.145 35.2344 217.87 36.5211 217.322 37.6649C216.798 38.8086 216.06 39.7736 215.106 40.5599C214.153 41.3701 213.01 41.9896 211.675 42.4185C210.341 42.8474 208.876 43.0619 207.279 43.0619C205.254 43.0619 203.526 42.7402 202.096 42.0968C200.667 41.4535 199.416 40.5242 198.344 39.309L201.417 36.1994C202.108 36.9858 202.966 37.6053 203.991 38.058C205.015 38.5346 206.111 38.7728 207.279 38.7728C207.97 38.7728 208.625 38.6775 209.245 38.4869C209.864 38.2963 210.412 37.9984 210.889 37.5934C211.366 37.2121 211.735 36.6998 211.997 36.0565C212.283 35.437 212.426 34.6864 212.426 33.8047V31.9819C211.854 33.0303 211.032 33.8286 209.96 34.3766C208.887 34.9008 207.732 35.1629 206.493 35.1629ZM208.459 30.6237C209.34 30.6237 210.126 30.3855 210.817 29.9089C211.508 29.4085 212.045 28.7771 212.426 28.0146V24.083C212.045 23.0822 211.461 22.2959 210.674 21.724C209.888 21.1284 209.054 20.8305 208.173 20.8305C207.553 20.8305 206.981 20.9735 206.457 21.2594C205.957 21.5215 205.516 21.8908 205.135 22.3674C204.777 22.8201 204.491 23.3563 204.277 23.9758C204.086 24.5715 203.991 25.191 203.991 25.8343C203.991 26.5254 204.098 27.1687 204.312 27.7644C204.551 28.3363 204.872 28.8366 205.277 29.2656C205.683 29.6945 206.147 30.028 206.671 30.2663C207.219 30.5046 207.815 30.6237 208.459 30.6237Z" fill="white"/>
<path d="M233.966 21.2237C232.584 21.2475 231.333 21.4739 230.213 21.9028C229.093 22.3317 228.283 22.975 227.782 23.8328V35.0914H222.064V16.327H227.318V20.1157C227.961 18.8528 228.783 17.8639 229.784 17.1491C230.808 16.4343 231.893 16.0649 233.036 16.0411C233.298 16.0411 233.489 16.0411 233.608 16.0411C233.727 16.0411 233.846 16.053 233.966 16.0769V21.2237Z" fill="white"/>
<path d="M244.367 35.4489C242.771 35.4489 241.341 35.1868 240.078 34.6625C238.839 34.1383 237.791 33.4354 236.933 32.5538C236.075 31.6483 235.42 30.6118 234.967 29.4443C234.538 28.2529 234.324 27.0138 234.324 25.7271C234.324 24.4404 234.538 23.2133 234.967 22.0457C235.42 20.8543 236.075 19.8178 236.933 18.9362C237.791 18.0307 238.839 17.3159 240.078 16.7917C241.341 16.2437 242.771 15.9696 244.367 15.9696C245.964 15.9696 247.381 16.2437 248.62 16.7917C249.859 17.3159 250.908 18.0307 251.766 18.9362C252.624 19.8178 253.279 20.8543 253.732 22.0457C254.184 23.2133 254.411 24.4404 254.411 25.7271C254.411 27.0138 254.184 28.2529 253.732 29.4443C253.303 30.6118 252.659 31.6483 251.801 32.5538C250.944 33.4354 249.883 34.1383 248.62 34.6625C247.381 35.1868 245.964 35.4489 244.367 35.4489ZM240.185 25.7271C240.185 27.2044 240.579 28.3958 241.365 29.3013C242.151 30.1829 243.152 30.6237 244.367 30.6237C244.963 30.6237 245.511 30.5046 246.011 30.2663C246.512 30.028 246.941 29.6945 247.298 29.2656C247.679 28.8366 247.977 28.3244 248.192 27.7287C248.406 27.1091 248.513 26.442 248.513 25.7271C248.513 24.2498 248.12 23.0703 247.334 22.1887C246.547 21.2832 245.559 20.8305 244.367 20.8305C243.771 20.8305 243.212 20.9496 242.687 21.1879C242.187 21.4262 241.746 21.7598 241.365 22.1887C241.007 22.6176 240.722 23.1418 240.507 23.7613C240.293 24.357 240.185 25.0123 240.185 25.7271Z" fill="white"/>
<path d="M262.93 35.4489C261 35.4489 259.534 34.8532 258.533 33.6618C257.557 32.4466 257.068 30.6714 257.068 28.3363V16.327H262.787V27.0853C262.787 28.229 263.013 29.1107 263.466 29.7302C263.919 30.3259 264.562 30.6237 265.396 30.6237C266.158 30.6237 266.897 30.4212 267.612 30.0161C268.327 29.6111 268.958 28.9081 269.506 27.9074V16.327H275.225V28.6579C275.225 29.2298 275.308 29.6349 275.475 29.8732C275.666 30.0876 275.987 30.2187 276.44 30.2663V35.0914C275.892 35.2106 275.427 35.2821 275.046 35.3059C274.665 35.3536 274.319 35.3774 274.01 35.3774C271.96 35.3774 270.793 34.5792 270.507 32.9827L270.4 31.839C269.542 33.078 268.47 33.9954 267.183 34.5911C265.92 35.1629 264.502 35.4489 262.93 35.4489Z" fill="white"/>
<path d="M297.74 35.0914H292.022V24.5476C292.022 23.3086 291.784 22.4151 291.307 21.867C290.854 21.2951 290.247 21.0092 289.484 21.0092C289.079 21.0092 288.674 21.0926 288.269 21.2594C287.864 21.4262 287.471 21.6645 287.089 21.9742C286.708 22.2602 286.363 22.6057 286.053 23.0107C285.767 23.4158 285.541 23.8566 285.374 24.3332V35.0914H279.655V16.327H284.802V19.4723C285.493 18.3524 286.47 17.4946 287.733 16.8989C288.996 16.2794 290.449 15.9696 292.093 15.9696C293.308 15.9696 294.285 16.196 295.024 16.6487C295.763 17.0776 296.335 17.6495 296.74 18.3643C297.145 19.0553 297.407 19.8178 297.526 20.6518C297.669 21.4858 297.74 22.2959 297.74 23.0822V35.0914Z" fill="white"/>
<path d="M309.332 35.4489C308.045 35.4489 306.854 35.2106 305.757 34.734C304.685 34.2336 303.756 33.5426 302.97 32.661C302.183 31.7794 301.564 30.7548 301.111 29.5872C300.682 28.3958 300.468 27.0972 300.468 25.6914C300.468 24.3332 300.67 23.0584 301.075 21.867C301.48 20.6756 302.052 19.651 302.791 18.7932C303.53 17.9116 304.399 17.2206 305.4 16.7202C306.425 16.2198 307.545 15.9696 308.76 15.9696C310.07 15.9696 311.25 16.2794 312.298 16.8989C313.37 17.5184 314.193 18.3524 314.764 19.4008V9H320.483V28.6579C320.483 29.2298 320.566 29.6349 320.733 29.8732C320.924 30.0876 321.246 30.2187 321.698 30.2663V35.0914C321.174 35.2106 320.721 35.2821 320.34 35.3059C319.959 35.3536 319.601 35.3774 319.268 35.3774C318.267 35.3774 317.457 35.1748 316.837 34.7698C316.218 34.3409 315.86 33.7333 315.765 32.9469L315.658 31.9819C314.991 33.1495 314.085 34.0192 312.942 34.5911C311.822 35.1629 310.618 35.4489 309.332 35.4489ZM310.869 30.6237C311.655 30.6237 312.405 30.3974 313.12 29.9446C313.859 29.4681 314.419 28.8247 314.8 28.0146V24.083C314.443 23.1299 313.859 22.3555 313.049 21.7598C312.262 21.1403 311.44 20.8305 310.583 20.8305C309.963 20.8305 309.391 20.9735 308.867 21.2594C308.367 21.5215 307.926 21.8789 307.545 22.3317C307.163 22.7844 306.865 23.3086 306.651 23.9043C306.46 24.5 306.365 25.1314 306.365 25.7986C306.365 26.4896 306.472 27.133 306.687 27.7287C306.925 28.3244 307.235 28.8366 307.616 29.2656C308.021 29.6945 308.498 30.028 309.046 30.2663C309.618 30.5046 310.225 30.6237 310.869 30.6237Z" fill="white"/>
<circle cx="22.3386" cy="22.3386" r="22.3386" fill="#FFE600"/>
<path fill-rule="evenodd" clip-rule="evenodd" d="M15.1902 11.1692H19.6579V34.4013H15.1902V11.1692ZM35.6228 22.7562L35.6836 22.6954L26.838 13.8498L23.6788 17.009L29.4261 22.7562L23.6788 28.5035L26.838 31.6626L35.6836 22.817L35.6228 22.7562Z" fill="black"/>
</svg>
