<svg width="165" height="36" viewBox="0 0 165 36" fill="none" xmlns="http://www.w3.org/2000/svg">
<path d="M58.831 28.0613H58.7557L54.1357 9.38183H48.7011L44.0999 28.0613H44.0239L39.7449 9.38183H34.0264L41.2215 35.5339H46.6178L51.3703 17.658H51.4651L56.2176 35.5339H61.6523L68.8285 9.38183H63.11L58.831 28.0613ZM127.129 8.96012C120.312 8.96012 116.241 13.4241 116.241 20.9153V24.0775C116.241 31.6453 120.293 35.9755 127.109 35.9755C133.944 35.9755 137.353 31.7603 137.353 27.0463V26.568H132.222C132.222 29.2693 130.896 31.3765 127.204 31.3765C123.493 31.3765 121.675 29.0584 121.675 24.0775V20.9153C121.675 15.9923 123.512 13.5205 127.166 13.5205C130.593 13.5205 132.222 15.8194 132.222 18.4063H137.353V18.1375C137.353 13.041 133.529 8.96012 127.129 8.96012ZM77.4819 9.38183L69.1507 35.5339H74.5093L76.3808 28.9433H84.5574L86.3997 35.5339H92.137L83.8253 9.38183H77.4819ZM77.5241 24.9203L80.4739 14.5356H80.5305L83.4329 24.9203H77.5241ZM158.977 9.38183V19.8816H148.411V9.38183H143.053V35.5339H148.411V24.3835H158.977V35.5345H164.354V9.38183H158.977ZM92.0428 13.903H99.7296V35.5339H105.069V13.903H112.776V9.38183H92.0428V13.903ZM23.9803 19.2748C23.9381 14.7625 27.6213 12.5916 27.7896 12.4868C25.6985 9.37155 22.4686 9.02762 21.3312 8.94147C18.4274 8.72548 15.9661 10.5833 14.5915 10.5833C13.1975 10.5833 11.0479 8.9884 8.76845 9.03147C5.77636 9.07712 3.01813 10.7916 1.47597 13.5045C-1.6324 18.9655 0.68215 27.0533 3.70932 31.4813C5.19042 33.6478 6.95605 36.0861 9.27644 35.9968C11.5098 35.908 12.3536 34.5343 15.0534 34.5343C17.7512 34.5343 18.5125 35.9968 20.8739 35.9511C23.2768 35.9087 24.8001 33.7448 26.2695 31.5655C27.9715 29.0545 28.6704 26.6233 28.712 26.4915C28.6581 26.4735 24.0258 24.6748 23.9803 19.2748ZM19.5389 6.01712C20.7719 4.5109 21.6021 2.4094 21.3734 0.323975C19.5987 0.394046 17.4537 1.52033 16.1805 3.02462C15.041 4.35983 14.0394 6.49669 14.3109 8.54419C16.2896 8.69783 18.3073 7.52526 19.5389 6.01712Z" fill="white"/>
</svg>
