<svg width="294" height="41" viewBox="0 0 294 41" fill="none" xmlns="http://www.w3.org/2000/svg">
<path d="M146.505 5.12774L151.277 9.97375L156.049 5.20196L151.277 0.430176L146.505 5.12774Z" fill="white"/>
<path d="M135.371 40.1863H142.025V3.08455L135.371 5.10924V40.1863Z" fill="white"/>
<path d="M29.7397 5.10939L17.9526 20.6026L6.16526 5.10939H0V40.1866H6.76917V17.1277L17.7153 30.8631H18.0911L29.136 17.0279V40.1866H35.9048V5.10939H29.7397Z" fill="white"/>
<path d="M129.641 40.1863H122.987V5.10924L129.641 3.08455V40.1863Z" fill="white"/>
<path fill-rule="evenodd" clip-rule="evenodd" d="M83.7766 14.1362L83.2935 14.0086C82.0372 13.6777 80.5805 13.4953 79.1913 13.4953C76.9257 13.4953 73.6882 13.969 71.1299 16.227C68.4305 18.6096 67.0618 22.4584 67.0618 27.6663C67.0618 32.3905 68.3486 35.8937 70.8865 38.0779C72.9716 39.8732 75.8818 40.7831 79.536 40.7831C84.0043 40.7831 88.1216 39.454 90.1778 38.661L90.3493 38.5956V3.30534L83.7766 5.12009V14.1362ZM83.7766 34.4479L83.5124 34.5364C83.4793 34.5474 81.9744 35.0458 80.4538 35.0458H80.232C79.5332 35.0458 77.8967 35.0458 76.512 33.9832C74.921 32.7607 74.1142 30.5082 74.1142 27.2893C74.1142 22.3092 76.467 19.3357 80.4075 19.3357C81.414 19.3357 82.4626 19.5335 83.5244 19.9239L83.7766 20.0171V34.4479Z" fill="white"/>
<path d="M154.303 40.1867H147.649V15.183L154.303 13.1583V40.1867Z" fill="white"/>
<path fill-rule="evenodd" clip-rule="evenodd" d="M97.0102 15.3196C97.0102 15.3196 100.45 13.4163 105.335 13.4163C110.473 13.4163 117.303 14.4823 117.303 23.6962V40.0978H110.921V38.6527C110.921 38.6527 108.207 40.7536 103.365 40.7536C98.5233 40.7536 94.1728 37.571 94.1728 32.3947C94.1728 27.2182 98.3517 23.9276 105.94 23.9276C108.368 23.9276 110.42 24.45 110.42 24.45C110.431 23.3047 110.446 21.4041 109.538 20.4357C108.656 19.4932 107.181 19.0352 105.031 19.0352C101.189 19.0352 98.6922 20.0883 97.4443 20.6146C97.2993 20.6757 97.1712 20.7297 97.0598 20.7742H97.0102V15.3196ZM104.871 35.8532C108.835 35.8532 110.492 33.7101 110.492 33.7101V28.7634C110.492 28.7634 109.006 28.4074 106.489 28.4074C103.789 28.4074 100.906 29.4331 100.906 32.3117C100.906 34.5295 102.464 35.8532 104.871 35.8532Z" fill="white"/>
<path fill-rule="evenodd" clip-rule="evenodd" d="M169.033 13.4163C164.148 13.4163 160.709 15.3196 160.709 15.3196V20.7742H160.757C160.869 20.7296 160.997 20.6755 161.143 20.6142C162.391 20.0878 164.888 19.0352 168.73 19.0352C170.879 19.0352 172.354 19.4932 173.237 20.4357C174.144 21.4041 174.128 23.3047 174.117 24.45C174.117 24.45 172.066 23.9276 169.638 23.9276C162.05 23.9276 157.871 27.2182 157.871 32.3947C157.871 37.571 162.221 40.7536 167.063 40.7536C171.905 40.7536 174.619 38.6527 174.619 38.6527V40.0978H181V23.6962C181 14.4823 174.171 13.4163 169.033 13.4163ZM174.189 33.7101C174.189 33.7101 172.534 35.8532 168.569 35.8532C166.162 35.8532 164.603 34.5295 164.603 32.3117C164.603 29.4331 167.488 28.4074 170.187 28.4074C172.704 28.4074 174.189 28.7634 174.189 28.7634V33.7101Z" fill="white"/>
<path fill-rule="evenodd" clip-rule="evenodd" d="M60.318 16.3321C62.6003 18.4785 63.7576 21.9416 63.7576 26.7115C63.7576 27.8565 63.6693 29.4971 63.6693 29.4971H46.7362C46.8322 30.0715 47.0838 31.0669 47.7361 32.0663C49.3769 34.5807 52.214 35.3654 54.3052 35.3654C58.1965 35.3654 61.0788 33.8567 62.0474 33.2741V38.8254C60.6331 39.4614 57.0895 40.8553 53.2192 40.8553C49.2701 40.8553 40.0852 39.5289 40.0852 27.2388C40.0852 22.4359 41.5075 18.7698 44.3125 16.3424C46.4437 14.4989 49.4263 13.4414 52.495 13.4414C55.8279 13.4414 58.4601 14.5847 60.318 16.3321ZM47.425 21.8957C46.8668 22.9435 46.7824 24.1344 46.7824 24.7554H57.8261C57.8261 24.1741 57.8037 22.9922 57.3078 21.9192C56.6838 20.5705 55.2127 18.9634 52.4826 18.9634C49.7652 18.9634 48.1376 20.5585 47.425 21.8957Z" fill="white"/>
<g opacity="0.6">
<path d="M216.188 17.1562H219.047L210.812 40H208.188L200 17.1562H202.812L208.062 31.9375C208.667 33.6354 209.146 35.2865 209.5 36.8906C209.875 35.2031 210.365 33.5208 210.969 31.8438L216.188 17.1562Z" fill="white"/>
<path d="M236.594 31.4219C236.594 34.2135 235.891 36.3958 234.484 37.9688C233.078 39.5312 231.135 40.3125 228.656 40.3125C227.125 40.3125 225.766 39.9531 224.578 39.2344C223.391 38.5156 222.474 37.4844 221.828 36.1406C221.182 34.7969 220.859 33.224 220.859 31.4219C220.859 28.6302 221.557 26.4583 222.953 24.9062C224.349 23.3438 226.286 22.5625 228.766 22.5625C231.161 22.5625 233.062 23.3594 234.469 24.9531C235.885 26.5469 236.594 28.7031 236.594 31.4219ZM223.547 31.4219C223.547 33.6094 223.984 35.276 224.859 36.4219C225.734 37.5677 227.021 38.1406 228.719 38.1406C230.417 38.1406 231.703 37.5729 232.578 36.4375C233.464 35.2917 233.906 33.6198 233.906 31.4219C233.906 29.2448 233.464 27.5938 232.578 26.4688C231.703 25.3333 230.406 24.7656 228.688 24.7656C226.99 24.7656 225.708 25.3229 224.844 26.4375C223.979 27.5521 223.547 29.2135 223.547 31.4219Z" fill="white"/>
<path d="M243.75 40H241.156V22.875H243.75V40ZM240.938 18.2344C240.938 17.6406 241.083 17.2083 241.375 16.9375C241.667 16.6562 242.031 16.5156 242.469 16.5156C242.885 16.5156 243.245 16.6562 243.547 16.9375C243.849 17.2188 244 17.651 244 18.2344C244 18.8177 243.849 19.2552 243.547 19.5469C243.245 19.8281 242.885 19.9688 242.469 19.9688C242.031 19.9688 241.667 19.8281 241.375 19.5469C241.083 19.2552 240.938 18.8177 240.938 18.2344Z" fill="white"/>
<path d="M256.094 40.3125C253.615 40.3125 251.693 39.5521 250.328 38.0312C248.974 36.5 248.297 34.3385 248.297 31.5469C248.297 28.6823 248.984 26.4688 250.359 24.9062C251.745 23.3438 253.714 22.5625 256.266 22.5625C257.089 22.5625 257.911 22.651 258.734 22.8281C259.557 23.0052 260.203 23.2135 260.672 23.4531L259.875 25.6562C259.302 25.4271 258.677 25.2396 258 25.0938C257.323 24.9375 256.724 24.8594 256.203 24.8594C252.724 24.8594 250.984 27.0781 250.984 31.5156C250.984 33.6198 251.406 35.2344 252.25 36.3594C253.104 37.4844 254.365 38.0469 256.031 38.0469C257.458 38.0469 258.922 37.7396 260.422 37.125V39.4219C259.276 40.0156 257.833 40.3125 256.094 40.3125Z" fill="white"/>
<path d="M271.734 40.3125C269.203 40.3125 267.203 39.5417 265.734 38C264.276 36.4583 263.547 34.3177 263.547 31.5781C263.547 28.8177 264.224 26.625 265.578 25C266.943 23.375 268.771 22.5625 271.062 22.5625C273.208 22.5625 274.906 23.2708 276.156 24.6875C277.406 26.0938 278.031 27.9531 278.031 30.2656V31.9062H266.234C266.286 33.9167 266.792 35.4427 267.75 36.4844C268.719 37.526 270.078 38.0469 271.828 38.0469C273.672 38.0469 275.495 37.6615 277.297 36.8906V39.2031C276.38 39.599 275.51 39.8802 274.688 40.0469C273.875 40.224 272.891 40.3125 271.734 40.3125ZM271.031 24.7344C269.656 24.7344 268.557 25.1823 267.734 26.0781C266.922 26.974 266.443 28.2135 266.297 29.7969H275.25C275.25 28.1615 274.885 26.9115 274.156 26.0469C273.427 25.1719 272.385 24.7344 271.031 24.7344Z" fill="white"/>
<path d="M293.516 35.3281C293.516 36.9219 292.922 38.151 291.734 39.0156C290.547 39.8802 288.88 40.3125 286.734 40.3125C284.464 40.3125 282.693 39.9531 281.422 39.2344V36.8281C282.245 37.2448 283.125 37.5729 284.062 37.8125C285.01 38.0521 285.922 38.1719 286.797 38.1719C288.151 38.1719 289.193 37.9583 289.922 37.5312C290.651 37.0938 291.016 36.4323 291.016 35.5469C291.016 34.8802 290.724 34.3125 290.141 33.8438C289.568 33.3646 288.443 32.8021 286.766 32.1562C285.172 31.5625 284.036 31.0469 283.359 30.6094C282.693 30.1615 282.193 29.6562 281.859 29.0938C281.536 28.5312 281.375 27.8594 281.375 27.0781C281.375 25.6823 281.943 24.5833 283.078 23.7812C284.214 22.9688 285.771 22.5625 287.75 22.5625C289.594 22.5625 291.396 22.9375 293.156 23.6875L292.234 25.7969C290.516 25.0885 288.958 24.7344 287.562 24.7344C286.333 24.7344 285.406 24.9271 284.781 25.3125C284.156 25.6979 283.844 26.2292 283.844 26.9062C283.844 27.3646 283.958 27.7552 284.188 28.0781C284.427 28.401 284.807 28.7083 285.328 29C285.849 29.2917 286.849 29.7135 288.328 30.2656C290.359 31.0052 291.729 31.75 292.438 32.5C293.156 33.25 293.516 34.1927 293.516 35.3281Z" fill="white"/>
</g>
</svg>
