<svg width="315" height="48" viewBox="0 0 315 48" fill="none" xmlns="http://www.w3.org/2000/svg">
<path d="M146.505 4.69756L151.277 9.54357L156.049 4.77178L151.277 0L146.505 4.69756Z" fill="white"/>
<path d="M135.371 39.7562H142.025V2.65437L135.371 4.67907V39.7562Z" fill="white"/>
<path d="M29.7397 4.67922L17.9526 20.1724L6.16526 4.67922H0V39.7564H6.76917V16.6975L17.7153 30.433H18.0911L29.136 16.5977V39.7564H35.9048V4.67922H29.7397Z" fill="white"/>
<path d="M129.641 39.7562H122.987V4.67907L129.641 2.65437V39.7562Z" fill="white"/>
<path fill-rule="evenodd" clip-rule="evenodd" d="M83.7766 13.706L83.2935 13.5784C82.0372 13.2476 80.5805 13.0651 79.1913 13.0651C76.9257 13.0651 73.6882 13.5388 71.1299 15.7968C68.4305 18.1795 67.0618 22.0282 67.0618 27.2361C67.0618 31.9603 68.3486 35.4635 70.8865 37.6477C72.9716 39.443 75.8818 40.3529 79.536 40.3529C84.0043 40.3529 88.1216 39.0238 90.1778 38.2308L90.3493 38.1654V2.87517L83.7766 4.68991V13.706ZM83.7766 34.0177L83.5124 34.1062C83.4793 34.1172 81.9744 34.6156 80.4538 34.6156H80.232C79.5332 34.6156 77.8967 34.6156 76.512 33.5531C74.921 32.3305 74.1142 30.078 74.1142 26.8592C74.1142 21.8791 76.467 18.9056 80.4075 18.9056C81.414 18.9056 82.4626 19.1033 83.5244 19.4938L83.7766 19.5869V34.0177Z" fill="white"/>
<path d="M154.303 39.7565H147.649V14.7528L154.303 12.7281V39.7565Z" fill="white"/>
<path fill-rule="evenodd" clip-rule="evenodd" d="M97.0102 14.8894C97.0102 14.8894 100.45 12.9861 105.335 12.9861C110.473 12.9861 117.303 14.0521 117.303 23.2661V39.6677H110.921V38.2225C110.921 38.2225 108.207 40.3234 103.365 40.3234C98.5233 40.3234 94.1728 37.1409 94.1728 31.9645C94.1728 26.788 98.3517 23.4975 105.94 23.4975C108.368 23.4975 110.42 24.0198 110.42 24.0198C110.431 22.8746 110.446 20.9739 109.538 20.0055C108.656 19.063 107.181 18.6051 105.031 18.6051C101.189 18.6051 98.6922 19.6581 97.4443 20.1844C97.2993 20.2455 97.1712 20.2996 97.0598 20.344H97.0102V14.8894ZM104.871 35.423C108.835 35.423 110.492 33.2799 110.492 33.2799V28.3333C110.492 28.3333 109.006 27.9772 106.489 27.9772C103.789 27.9772 100.906 29.0029 100.906 31.8815C100.906 34.0994 102.464 35.423 104.871 35.423Z" fill="white"/>
<path fill-rule="evenodd" clip-rule="evenodd" d="M169.033 12.9861C164.148 12.9861 160.709 14.8894 160.709 14.8894V20.344H160.757C160.869 20.2995 160.997 20.2453 161.143 20.184C162.391 19.6576 164.888 18.6051 168.73 18.6051C170.879 18.6051 172.354 19.063 173.237 20.0055C174.144 20.9739 174.128 22.8746 174.117 24.0198C174.117 24.0198 172.066 23.4975 169.638 23.4975C162.05 23.4975 157.871 26.788 157.871 31.9645C157.871 37.1409 162.221 40.3234 167.063 40.3234C171.905 40.3234 174.619 38.2225 174.619 38.2225V39.6677H181V23.2661C181 14.0521 174.171 12.9861 169.033 12.9861ZM174.189 33.2799C174.189 33.2799 172.534 35.423 168.569 35.423C166.162 35.423 164.603 34.0994 164.603 31.8815C164.603 29.0029 167.488 27.9772 170.187 27.9772C172.704 27.9772 174.189 28.3333 174.189 28.3333V33.2799Z" fill="white"/>
<path fill-rule="evenodd" clip-rule="evenodd" d="M60.318 15.902C62.6003 18.0483 63.7576 21.5114 63.7576 26.2814C63.7576 27.4263 63.6693 29.0669 63.6693 29.0669H46.7362C46.8322 29.6414 47.0838 30.6367 47.7361 31.6361C49.3769 34.1505 52.214 34.9353 54.3052 34.9353C58.1965 34.9353 61.0788 33.4265 62.0474 32.8439V38.3952C60.6331 39.0312 57.0895 40.4251 53.2192 40.4251C49.2701 40.4251 40.0852 39.0988 40.0852 26.8086C40.0852 22.0058 41.5075 18.3396 44.3125 15.9123C46.4437 14.0688 49.4263 13.0112 52.495 13.0112C55.8279 13.0112 58.4601 14.1545 60.318 15.902ZM47.425 21.4656C46.8668 22.5133 46.7824 23.7042 46.7824 24.3252H57.8261C57.8261 23.7439 57.8037 22.5621 57.3078 21.489C56.6838 20.1403 55.2127 18.5332 52.4826 18.5332C49.7652 18.5332 48.1376 20.1283 47.425 21.4656Z" fill="white"/>
<g opacity="0.6">
<path d="M216.031 33.4219C216.031 35.4323 215.302 37 213.844 38.125C212.385 39.25 210.406 39.8125 207.906 39.8125C205.198 39.8125 203.115 39.4635 201.656 38.7656V36.2031C202.594 36.599 203.615 36.9115 204.719 37.1406C205.823 37.3698 206.917 37.4844 208 37.4844C209.771 37.4844 211.104 37.151 212 36.4844C212.896 35.8073 213.344 34.8698 213.344 33.6719C213.344 32.8802 213.182 32.2344 212.859 31.7344C212.547 31.224 212.016 30.7552 211.266 30.3281C210.526 29.901 209.396 29.4167 207.875 28.875C205.75 28.1146 204.229 27.2135 203.312 26.1719C202.406 25.1302 201.953 23.7708 201.953 22.0938C201.953 20.3333 202.615 18.9323 203.938 17.8906C205.26 16.849 207.01 16.3281 209.188 16.3281C211.458 16.3281 213.547 16.7448 215.453 17.5781L214.625 19.8906C212.74 19.099 210.906 18.7031 209.125 18.7031C207.719 18.7031 206.62 19.0052 205.828 19.6094C205.036 20.2135 204.641 21.0521 204.641 22.125C204.641 22.9167 204.786 23.5677 205.078 24.0781C205.37 24.5781 205.859 25.0417 206.547 25.4688C207.245 25.8854 208.307 26.349 209.734 26.8594C212.13 27.7135 213.776 28.6302 214.672 29.6094C215.578 30.5885 216.031 31.8594 216.031 33.4219Z" fill="white"/>
<path d="M222.75 22.375V33.4844C222.75 34.8802 223.068 35.9219 223.703 36.6094C224.339 37.2969 225.333 37.6406 226.688 37.6406C228.479 37.6406 229.786 37.151 230.609 36.1719C231.443 35.1927 231.859 33.5938 231.859 31.375V22.375H234.453V39.5H232.312L231.938 37.2031H231.797C231.266 38.0469 230.526 38.6927 229.578 39.1406C228.641 39.5885 227.568 39.8125 226.359 39.8125C224.276 39.8125 222.714 39.3177 221.672 38.3281C220.641 37.3385 220.125 35.7552 220.125 33.5781V22.375H222.75Z" fill="white"/>
<path d="M247.781 22.0625C248.542 22.0625 249.224 22.125 249.828 22.25L249.469 24.6562C248.76 24.5 248.135 24.4219 247.594 24.4219C246.208 24.4219 245.021 24.9844 244.031 26.1094C243.052 27.2344 242.562 28.6354 242.562 30.3125V39.5H239.969V22.375H242.109L242.406 25.5469H242.531C243.167 24.4323 243.932 23.5729 244.828 22.9688C245.724 22.3646 246.708 22.0625 247.781 22.0625Z" fill="white"/>
<path d="M256.781 39.5L250.281 22.375H253.062L256.75 32.5312C257.583 34.9062 258.073 36.4479 258.219 37.1562H258.344C258.458 36.6042 258.818 35.4635 259.422 33.7344C260.036 31.9948 261.406 28.2083 263.531 22.375H266.312L259.812 39.5H256.781Z" fill="white"/>
<path d="M276.297 39.8125C273.766 39.8125 271.766 39.0417 270.297 37.5C268.839 35.9583 268.109 33.8177 268.109 31.0781C268.109 28.3177 268.786 26.125 270.141 24.5C271.505 22.875 273.333 22.0625 275.625 22.0625C277.771 22.0625 279.469 22.7708 280.719 24.1875C281.969 25.5938 282.594 27.4531 282.594 29.7656V31.4062H270.797C270.849 33.4167 271.354 34.9427 272.312 35.9844C273.281 37.026 274.641 37.5469 276.391 37.5469C278.234 37.5469 280.057 37.1615 281.859 36.3906V38.7031C280.943 39.099 280.073 39.3802 279.25 39.5469C278.438 39.724 277.453 39.8125 276.297 39.8125ZM275.594 24.2344C274.219 24.2344 273.12 24.6823 272.297 25.5781C271.484 26.474 271.005 27.7135 270.859 29.2969H279.812C279.812 27.6615 279.448 26.4115 278.719 25.5469C277.99 24.6719 276.948 24.2344 275.594 24.2344Z" fill="white"/>
<path d="M284.312 22.375H287.094L290.844 32.1406C291.667 34.3698 292.177 35.9792 292.375 36.9688H292.5C292.635 36.4375 292.917 35.5312 293.344 34.25C293.781 32.9583 295.198 29 297.594 22.375H300.375L293.016 41.875C292.286 43.8021 291.432 45.1667 290.453 45.9688C289.484 46.7812 288.292 47.1875 286.875 47.1875C286.083 47.1875 285.302 47.099 284.531 46.9219V44.8438C285.104 44.9688 285.745 45.0312 286.453 45.0312C288.234 45.0312 289.505 44.0312 290.266 42.0312L291.219 39.5938L284.312 22.375Z" fill="white"/>
<path d="M314.203 34.8281C314.203 36.4219 313.609 37.651 312.422 38.5156C311.234 39.3802 309.568 39.8125 307.422 39.8125C305.151 39.8125 303.38 39.4531 302.109 38.7344V36.3281C302.932 36.7448 303.812 37.0729 304.75 37.3125C305.698 37.5521 306.609 37.6719 307.484 37.6719C308.839 37.6719 309.88 37.4583 310.609 37.0312C311.339 36.5938 311.703 35.9323 311.703 35.0469C311.703 34.3802 311.411 33.8125 310.828 33.3438C310.255 32.8646 309.13 32.3021 307.453 31.6562C305.859 31.0625 304.724 30.5469 304.047 30.1094C303.38 29.6615 302.88 29.1562 302.547 28.5938C302.224 28.0312 302.062 27.3594 302.062 26.5781C302.062 25.1823 302.63 24.0833 303.766 23.2812C304.901 22.4688 306.458 22.0625 308.438 22.0625C310.281 22.0625 312.083 22.4375 313.844 23.1875L312.922 25.2969C311.203 24.5885 309.646 24.2344 308.25 24.2344C307.021 24.2344 306.094 24.4271 305.469 24.8125C304.844 25.1979 304.531 25.7292 304.531 26.4062C304.531 26.8646 304.646 27.2552 304.875 27.5781C305.115 27.901 305.495 28.2083 306.016 28.5C306.536 28.7917 307.536 29.2135 309.016 29.7656C311.047 30.5052 312.417 31.25 313.125 32C313.844 32.75 314.203 33.6927 314.203 34.8281Z" fill="white"/>
</g>
</svg>
