<svg width="346" height="26" viewBox="0 0 346 26" fill="none" xmlns="http://www.w3.org/2000/svg">
<g opacity="0.6">
<path d="M213.797 15.5V25H211.141V2.15625H217.406C220.208 2.15625 222.276 2.69271 223.609 3.76562C224.953 4.83854 225.625 6.45312 225.625 8.60938C225.625 11.6302 224.094 13.6719 221.031 14.7344L227.234 25H224.094L218.562 15.5H213.797ZM213.797 13.2188H217.438C219.312 13.2188 220.688 12.849 221.562 12.1094C222.438 11.3594 222.875 10.2396 222.875 8.75C222.875 7.23958 222.427 6.15104 221.531 5.48438C220.646 4.81771 219.219 4.48438 217.25 4.48438H213.797V13.2188Z" fill="white"/>
<path d="M237.766 25.3125C235.234 25.3125 233.234 24.5417 231.766 23C230.307 21.4583 229.578 19.3177 229.578 16.5781C229.578 13.8177 230.255 11.625 231.609 10C232.974 8.375 234.802 7.5625 237.094 7.5625C239.24 7.5625 240.938 8.27083 242.188 9.6875C243.438 11.0938 244.062 12.9531 244.062 15.2656V16.9062H232.266C232.318 18.9167 232.823 20.4427 233.781 21.4844C234.75 22.526 236.109 23.0469 237.859 23.0469C239.703 23.0469 241.526 22.6615 243.328 21.8906V24.2031C242.411 24.599 241.542 24.8802 240.719 25.0469C239.906 25.224 238.922 25.3125 237.766 25.3125ZM237.062 9.73438C235.688 9.73438 234.589 10.1823 233.766 11.0781C232.953 11.974 232.474 13.2135 232.328 14.7969H241.281C241.281 13.1615 240.917 11.9115 240.188 11.0469C239.458 10.1719 238.417 9.73438 237.062 9.73438Z" fill="white"/>
<path d="M260.156 22.7031H260.016C258.818 24.4427 257.026 25.3125 254.641 25.3125C252.401 25.3125 250.656 24.5469 249.406 23.0156C248.167 21.4844 247.547 19.3073 247.547 16.4844C247.547 13.6615 248.172 11.4688 249.422 9.90625C250.672 8.34375 252.411 7.5625 254.641 7.5625C256.964 7.5625 258.745 8.40625 259.984 10.0938H260.188L260.078 8.85938L260.016 7.65625V0.6875H262.609V25H260.5L260.156 22.7031ZM254.969 23.1406C256.74 23.1406 258.021 22.6615 258.812 21.7031C259.615 20.7344 260.016 19.1771 260.016 17.0312V16.4844C260.016 14.0573 259.609 12.3281 258.797 11.2969C257.995 10.2552 256.708 9.73438 254.938 9.73438C253.417 9.73438 252.25 10.3281 251.438 11.5156C250.635 12.6927 250.234 14.3594 250.234 16.5156C250.234 18.7031 250.635 20.3542 251.438 21.4688C252.24 22.5833 253.417 23.1406 254.969 23.1406Z" fill="white"/>
<path d="M282.109 25L278.969 14.9531C278.771 14.3385 278.401 12.9427 277.859 10.7656H277.734C277.318 12.5885 276.953 13.9948 276.641 14.9844L273.406 25H270.406L265.734 7.875H268.453C269.557 12.1771 270.396 15.4531 270.969 17.7031C271.552 19.9531 271.885 21.4688 271.969 22.25H272.094C272.208 21.6562 272.391 20.8906 272.641 19.9531C272.901 19.0052 273.125 18.2552 273.312 17.7031L276.453 7.875H279.266L282.328 17.7031C282.911 19.4948 283.307 21 283.516 22.2188H283.641C283.682 21.8438 283.792 21.2656 283.969 20.4844C284.156 19.7031 285.245 15.5 287.234 7.875H289.922L285.188 25H282.109Z" fill="white"/>
<path d="M307.812 16.4219C307.812 19.2135 307.109 21.3958 305.703 22.9688C304.297 24.5312 302.354 25.3125 299.875 25.3125C298.344 25.3125 296.984 24.9531 295.797 24.2344C294.609 23.5156 293.693 22.4844 293.047 21.1406C292.401 19.7969 292.078 18.224 292.078 16.4219C292.078 13.6302 292.776 11.4583 294.172 9.90625C295.568 8.34375 297.505 7.5625 299.984 7.5625C302.38 7.5625 304.281 8.35938 305.688 9.95312C307.104 11.5469 307.812 13.7031 307.812 16.4219ZM294.766 16.4219C294.766 18.6094 295.203 20.276 296.078 21.4219C296.953 22.5677 298.24 23.1406 299.938 23.1406C301.635 23.1406 302.922 22.5729 303.797 21.4375C304.682 20.2917 305.125 18.6198 305.125 16.4219C305.125 14.2448 304.682 12.5938 303.797 11.4688C302.922 10.3333 301.625 9.76562 299.906 9.76562C298.208 9.76562 296.927 10.3229 296.062 11.4375C295.198 12.5521 294.766 14.2135 294.766 16.4219Z" fill="white"/>
<path d="M327.156 16.4219C327.156 19.2135 326.453 21.3958 325.047 22.9688C323.641 24.5312 321.698 25.3125 319.219 25.3125C317.688 25.3125 316.328 24.9531 315.141 24.2344C313.953 23.5156 313.036 22.4844 312.391 21.1406C311.745 19.7969 311.422 18.224 311.422 16.4219C311.422 13.6302 312.12 11.4583 313.516 9.90625C314.911 8.34375 316.849 7.5625 319.328 7.5625C321.724 7.5625 323.625 8.35938 325.031 9.95312C326.448 11.5469 327.156 13.7031 327.156 16.4219ZM314.109 16.4219C314.109 18.6094 314.547 20.276 315.422 21.4219C316.297 22.5677 317.583 23.1406 319.281 23.1406C320.979 23.1406 322.266 22.5729 323.141 21.4375C324.026 20.2917 324.469 18.6198 324.469 16.4219C324.469 14.2448 324.026 12.5938 323.141 11.4688C322.266 10.3333 320.969 9.76562 319.25 9.76562C317.552 9.76562 316.271 10.3229 315.406 11.4375C314.542 12.5521 314.109 14.2135 314.109 16.4219Z" fill="white"/>
<path d="M343.375 22.7031H343.234C342.036 24.4427 340.245 25.3125 337.859 25.3125C335.62 25.3125 333.875 24.5469 332.625 23.0156C331.385 21.4844 330.766 19.3073 330.766 16.4844C330.766 13.6615 331.391 11.4688 332.641 9.90625C333.891 8.34375 335.63 7.5625 337.859 7.5625C340.182 7.5625 341.964 8.40625 343.203 10.0938H343.406L343.297 8.85938L343.234 7.65625V0.6875H345.828V25H343.719L343.375 22.7031ZM338.188 23.1406C339.958 23.1406 341.24 22.6615 342.031 21.7031C342.833 20.7344 343.234 19.1771 343.234 17.0312V16.4844C343.234 14.0573 342.828 12.3281 342.016 11.2969C341.214 10.2552 339.927 9.73438 338.156 9.73438C336.635 9.73438 335.469 10.3281 334.656 11.5156C333.854 12.6927 333.453 14.3594 333.453 16.5156C333.453 18.7031 333.854 20.3542 334.656 21.4688C335.458 22.5833 336.635 23.1406 338.188 23.1406Z" fill="white"/>
</g>
<path fill-rule="evenodd" clip-rule="evenodd" d="M82.8311 16.2618H95.5087L88.8151 5.44267L76.5196 24.9942L70.9147 25L85.882 1.52257C86.5169 0.569883 87.6114 0 88.8065 0C89.9872 0 91.0645 0.552613 91.6965 1.47939L106.718 25L101.114 24.9942L98.4792 20.628H85.6378L82.8311 16.2618ZM141.002 20.6338V0.2389H136.245V22.6255C136.245 23.2443 136.498 23.8343 136.937 24.2805C137.406 24.7352 138.02 24.9943 138.678 24.9943H160.348L163.146 20.6338H141.002ZM62.394 16.9814C67.0106 16.9814 70.7424 13.2339 70.7424 8.61157C70.7424 3.98919 67.0106 0.2389 62.394 0.2389H41.595V24.9943H46.3495V4.60512H62.0665C64.2815 4.60512 66.0655 6.39536 66.0655 8.61157C66.0655 10.8191 64.2815 12.6151 62.0665 12.6151L48.6793 12.6094L62.8537 24.9943H69.7599L60.2193 16.9756L62.394 16.9814ZM12.3559 24.9943C5.533 24.9943 0 19.4566 0 12.6151C0 5.77943 5.533 0.2389 12.3559 0.2389H26.7198C33.5427 0.2389 39.0728 5.77943 39.0728 12.6151C39.0728 19.4595 33.5427 25 26.7198 25L12.3559 24.9943ZM26.3953 20.6338C30.8137 20.6338 34.3989 17.0447 34.3989 12.6151C34.3989 8.19136 30.8137 4.60513 26.3953 4.60513H12.6778C8.2594 4.60513 4.67703 8.19136 4.67703 12.6151C4.67703 17.0447 8.2594 20.6338 12.6778 20.6338H26.3953ZM116.635 24.9943C109.81 24.9943 104.274 19.4566 104.274 12.6151C104.274 5.77943 109.81 0.2389 116.635 0.2389H133.697L130.896 4.60512H116.957C112.533 4.60512 108.945 8.19135 108.945 12.6151C108.945 17.0447 112.533 20.6338 116.957 20.6338H134.079L131.298 24.9943H116.635ZM174.758 20.6338C171.098 20.6338 168.004 18.1701 167.056 14.8083H187.364L190.17 10.445H167.053C168.001 7.07173 171.092 4.60512 174.758 4.60512H188.696L191.495 0.2389H174.427C167.61 0.2389 162.077 5.77943 162.077 12.6151C162.077 19.4566 167.61 24.9943 174.427 24.9943H189.084L191.882 20.6338H174.758Z" fill="#C74634"/>
</svg>
