<svg width="32" height="32" viewBox="0 0 32 32" fill="none" xmlns="http://www.w3.org/2000/svg">
<circle cx="16" cy="16" r="16" fill="black"/>
<path fill-rule="evenodd" clip-rule="evenodd" d="M9.96226 7.54401C8.87854 7.54401 8 8.42254 8 9.50627C8 10.59 8.87854 11.4685 9.96226 11.4685C11.046 11.4685 11.9245 10.59 11.9245 9.50627C11.9245 8.42254 11.046 7.54401 9.96226 7.54401ZM8.90566 9.50627C8.90566 8.92272 9.37872 8.44967 9.96226 8.44967C10.5458 8.44967 11.0189 8.92272 11.0189 9.50627C11.0189 10.0898 10.5458 10.5629 9.96226 10.5629C9.37872 10.5629 8.90566 10.0898 8.90566 9.50627Z" fill="white"/>
<path fill-rule="evenodd" clip-rule="evenodd" d="M19.0189 12.0723C17.6978 12.0723 16.4308 12.5971 15.4967 13.5312C14.5625 14.4654 14.0377 15.7324 14.0377 17.0534V22.3365C14.0377 22.5865 14.2405 22.7893 14.4906 22.7893H17.5094C17.7595 22.7893 17.9623 22.5865 17.9623 22.3365V17.0534C17.9623 16.7732 18.0736 16.5045 18.2717 16.3063C18.4699 16.1082 18.7386 15.9968 19.0189 15.9968C19.2991 15.9968 19.5678 16.1082 19.766 16.3063C19.9642 16.5045 20.0755 16.7732 20.0755 17.0534V22.3365C20.0755 22.5865 20.2782 22.7893 20.5283 22.7893H23.5472C23.7973 22.7893 24 22.5865 24 22.3365V17.0534C24 15.7324 23.4752 14.4654 22.5411 13.5312C21.6069 12.5971 20.3399 12.0723 19.0189 12.0723ZM19.0189 12.978C17.938 12.978 16.9014 13.4073 16.1371 14.1716C15.3728 14.9359 14.9434 15.9726 14.9434 17.0534V21.8836H17.0566V17.0534C17.0566 16.533 17.2633 16.0339 17.6313 15.6659C17.9993 15.2979 18.4984 15.0912 19.0189 15.0912C19.5393 15.0912 20.0384 15.2979 20.4064 15.6659C20.7744 16.0339 20.9811 16.533 20.9811 17.0534V21.8836H23.0943V17.0534C23.0943 15.9726 22.665 14.9359 21.9007 14.1716C21.1364 13.4073 20.0997 12.978 19.0189 12.978Z" fill="white"/>
<path fill-rule="evenodd" clip-rule="evenodd" d="M8 13.2799C8 13.0298 8.20274 12.827 8.45283 12.827H11.4717C11.7218 12.827 11.9245 13.0298 11.9245 13.2799V22.3365C11.9245 22.5865 11.7218 22.7893 11.4717 22.7893H8.45283C8.20274 22.7893 8 22.5865 8 22.3365V13.2799ZM8.90566 13.7327V21.8836H11.0189V13.7327H8.90566Z" fill="white"/>
</svg>
