<svg width="32" height="32" viewBox="0 0 32 32" fill="none" xmlns="http://www.w3.org/2000/svg">
<circle cx="16" cy="16" r="16" fill="black"/>
<path fill-rule="evenodd" clip-rule="evenodd" d="M17.9178 9.22209C18.6371 8.94756 19.4233 8.90056 20.1702 9.08743C20.8076 9.24694 21.3902 9.57026 21.8613 10.0228C22.5191 9.79497 23.1421 9.47562 23.7118 9.07377L24.0001 9.48235L24.4859 9.60066C24.2377 10.6196 23.7321 11.5561 23.0192 12.3214C23.0363 12.4647 23.045 12.609 23.0455 12.7534L23.0455 12.7551C23.0455 17.1119 20.9521 20.2869 17.9622 21.8783C14.9846 23.4631 11.1682 23.4508 7.75723 21.5558C7.55482 21.4433 7.4561 21.2066 7.51863 20.9837C7.58115 20.7608 7.78856 20.6099 8.01992 20.6191C9.42639 20.6751 10.8171 20.3572 12.0529 19.7053C10.7961 19.0054 9.92364 18.1503 9.33901 17.2271C8.63477 16.1152 8.36721 14.9349 8.31875 13.8687C8.27038 12.8046 8.43948 11.8438 8.61825 11.1526C8.70793 10.8058 8.80088 10.5237 8.87217 10.3266C8.90784 10.2279 8.93818 10.1502 8.96011 10.0961C8.97107 10.069 8.97994 10.0478 8.98633 10.0328L8.99401 10.0149L8.99637 10.0095L8.99716 10.0077C8.99716 10.0077 8.99769 10.0066 9.4546 10.2096L9.86378 9.92227C10.5512 10.9011 11.47 11.6947 12.5383 12.2324C13.4613 12.697 14.4713 12.9582 15.5001 13.0006V12.7801C15.4905 12.0115 15.7168 11.2584 16.1485 10.6224C16.5809 9.98543 17.1985 9.49662 17.9178 9.22209ZM9.63104 11.237C9.61618 11.2902 9.60125 11.3456 9.5864 11.403C9.42426 12.0299 9.27518 12.8873 9.31772 13.8233C9.36016 14.757 9.5926 15.7586 10.1838 16.6921C10.773 17.6224 11.7376 18.5155 13.294 19.2073C13.4599 19.281 13.5728 19.4389 13.589 19.6197C13.6051 19.8005 13.522 19.9759 13.3718 20.0779C12.3504 20.7711 11.2033 21.2419 10.0045 21.4689C12.6262 22.3706 15.3244 22.1494 17.4924 20.9955C20.1388 19.587 22.0452 16.7623 22.0455 12.7559C22.0449 12.5845 22.0284 12.4136 21.9962 12.2453C21.9649 12.0814 22.0174 11.9126 22.1362 11.7954C22.4872 11.4493 22.7845 11.0561 23.0208 10.6288C22.6461 10.8052 22.2584 10.9541 21.8606 11.0738C21.6723 11.1305 21.4682 11.0716 21.3391 10.9232C20.9683 10.4969 20.4756 10.1947 19.9274 10.0575C19.3793 9.92038 18.8023 9.95487 18.2744 10.1564C17.7465 10.3578 17.2933 10.7166 16.9759 11.1841C16.6586 11.6515 16.4924 12.2052 16.5 12.7702L16.5001 12.7769L16.5001 13.5042C16.5001 13.7753 16.284 13.997 16.013 14.004C14.6525 14.0393 13.3044 13.7375 12.0887 13.1257C11.155 12.6557 10.3217 12.014 9.63104 11.237Z" fill="white"/>
</svg>
