<svg width="32" height="32" viewBox="0 0 32 32" fill="none" xmlns="http://www.w3.org/2000/svg">
<circle cx="16" cy="16" r="16" fill="black"/>
<path d="M19.234 24V21.0552C19.2626 20.6923 19.2135 20.3276 19.0902 19.9852C18.9669 19.6427 18.7721 19.3305 18.5187 19.0691C20.9081 18.8028 23.4191 17.8973 23.4191 13.7426C23.4189 12.6802 23.0103 11.6586 22.2777 10.8891C22.6246 9.95963 22.6001 8.93225 22.2093 8.02039C22.2093 8.02039 21.3114 7.75406 19.234 9.14657C17.49 8.67389 15.6515 8.67389 13.9075 9.14657C11.8301 7.75406 10.9322 8.02039 10.9322 8.02039C10.5414 8.93225 10.5169 9.95963 10.8637 10.8891C10.1257 11.6643 9.71664 12.6952 9.72233 13.7654C9.72233 17.8897 12.2334 18.7952 14.6227 19.092C14.3724 19.3507 14.1793 19.6592 14.0561 19.9974C13.9329 20.3357 13.8822 20.6961 13.9075 21.0552V24M13.9075 21.7172C10.1028 22.8586 10.1028 19.8149 8.58093 19.4344L13.9075 21.7172Z" stroke="white" stroke-linecap="round" stroke-linejoin="round"/>
</svg>
