<svg width="32" height="32" viewBox="0 0 32 32" fill="none" xmlns="http://www.w3.org/2000/svg">
<circle cx="16" cy="16" r="16" fill="black"/>
<path fill-rule="evenodd" clip-rule="evenodd" d="M11.5554 9.34824C12.871 8.46919 14.4178 8 16 8C18.1217 8 20.1566 8.84285 21.6569 10.3431C23.1571 11.8434 24 13.8783 24 16C24 17.5822 23.5308 19.129 22.6518 20.4446C21.7727 21.7602 20.5233 22.7855 19.0615 23.391C17.5997 23.9965 15.9911 24.155 14.4393 23.8463C12.8874 23.5376 11.462 22.7757 10.3431 21.6569C9.22433 20.538 8.4624 19.1126 8.15372 17.5607C7.84504 16.0089 8.00347 14.4003 8.60897 12.9385C9.21447 11.4767 10.2398 10.2273 11.5554 9.34824ZM19.9096 10.1489C18.7523 9.37568 17.3918 8.96296 16 8.96296C15.4487 8.96354 14.9041 9.02875 14.3763 9.15437C14.4357 9.23355 14.5021 9.32454 14.5749 9.42804C14.9067 9.89916 15.373 10.6292 15.9288 11.6833C16.2045 12.206 16.5021 12.8084 16.8162 13.4985C18.398 12.9333 19.8184 12.0742 20.7259 10.786C20.4708 10.5548 20.1981 10.3417 19.9096 10.1489ZM15.0443 12.1497C15.2959 12.6269 15.5679 13.1755 15.8555 13.8021C15.0738 14.0194 14.2711 14.1755 13.486 14.2852C12.0984 14.4791 10.8066 14.5226 9.86063 14.5173C9.58321 14.5158 9.33604 14.51 9.12551 14.5027C9.41124 13.196 10.0658 11.9867 11.0262 11.0262C11.6992 10.3533 12.4943 9.83049 13.3595 9.47954C13.3734 9.49606 13.3897 9.51567 13.4082 9.53847C13.4862 9.6343 13.6044 9.78665 13.7573 10.0038C14.063 10.438 14.5073 11.1313 15.0443 12.1497ZM9.85505 15.5173C9.51804 15.5154 9.22336 15.5076 8.98139 15.4981C8.96932 15.6646 8.96314 15.832 8.96297 16C8.96297 17.3918 9.37568 18.7523 10.1489 19.9096C10.334 20.1866 10.5378 20.449 10.7583 20.6952C10.8758 20.5086 11.0309 20.2772 11.2258 20.0166C11.7266 19.3465 12.4934 18.4778 13.5601 17.6806C14.4369 17.0253 15.5113 16.4226 16.7976 16.0168C16.6164 15.5586 16.4387 15.1285 16.2654 14.7254C15.3735 14.9822 14.4733 15.1569 13.6244 15.2756C12.1761 15.4779 10.834 15.5228 9.85505 15.5173ZM17.1574 16.952C15.9543 17.3231 14.9615 17.8817 14.1587 18.4816C13.1856 19.2089 12.4842 20.0033 12.0267 20.6153C11.7983 20.9208 11.6317 21.1796 11.5234 21.3598C11.5136 21.376 11.5043 21.3915 11.4955 21.4064C12.0378 21.8582 12.6479 22.2283 13.307 22.5014C14.5929 23.034 16.0078 23.1733 17.3729 22.9018C17.9127 22.7944 18.4352 22.6247 18.9305 22.3978C18.3289 20.2818 17.7291 18.4791 17.1574 16.952ZM18.1324 16.7044C19.5083 16.4273 21.1208 16.3975 22.9933 16.7832C22.9712 16.9804 22.9408 17.1771 22.9018 17.3729C22.6303 18.7379 21.9601 19.9918 20.9759 20.9759C20.6256 21.3263 20.241 21.6369 19.8294 21.9039C19.2553 19.9048 18.6824 18.1821 18.1324 16.7044ZM23.0333 15.7713C21.017 15.3771 19.2687 15.4331 17.7707 15.7584C17.5837 15.2826 17.4 14.8355 17.2206 14.4157C18.8542 13.8222 20.3847 12.9129 21.4277 11.5212C21.8699 12.057 22.2326 12.6582 22.5014 13.307C22.8273 14.0938 23.0059 14.9289 23.0333 15.7713Z" fill="white"/>
</svg>
